<svg width="40" height="41" viewBox="0 0 40 41" fill="none" xmlns="http://www.w3.org/2000/svg">
    <path d="M39.9999 21.0311C39.9999 21.3356 39.9999 21.632 39.9999 21.9285C39.9999 21.9846 39.9999 22.0407 39.9999 22.1048L39.9519 22.7779C39.5388 27.4988 37.4684 31.9201 34.1084 35.2563C30.7484 38.5925 26.3164 40.6276 21.6 41C21.376 41 21.152 41 20.92 41C20.688 41 20.336 41 20.04 41H19.992C16.034 40.9984 12.1655 39.8205 8.87618 37.6154C5.58689 35.4103 3.02475 32.2773 1.51413 28.6128C0.00350741 24.9484 -0.387661 20.9174 0.390145 17.0301C1.16795 13.1429 3.07975 9.57424 5.88352 6.77594C8.68728 3.97764 12.2569 2.07555 16.1405 1.31047C20.0241 0.545398 24.047 0.951743 27.6999 2.47807C31.3528 4.00439 34.4715 6.58205 36.661 9.88471C38.8506 13.1874 40.0126 17.0665 39.9999 21.0311Z" fill="#26C92E"/>
    <path d="M30.6159 13.0819H29.016C29.352 13.2101 29.6879 13.3544 30.0159 13.5146C30.0966 13.5556 30.165 13.6172 30.2142 13.6932C30.2634 13.7692 30.2916 13.8569 30.2959 13.9474V27.5698C30.2981 27.6069 30.2927 27.6441 30.28 27.679C30.2673 27.7139 30.2476 27.7459 30.2222 27.7729C30.1967 27.8 30.166 27.8215 30.1319 27.8361C30.0978 27.8508 30.0611 27.8584 30.0239 27.8583C29.9708 27.8575 29.9186 27.8437 29.8719 27.8182C28.3747 27.0955 26.734 26.7201 25.072 26.7201C23.4099 26.7201 21.7692 27.0955 20.272 27.8182C20.2336 27.8379 20.1911 27.8482 20.148 27.8482C20.1049 27.8482 20.0624 27.8379 20.024 27.8182C19.987 27.8258 19.9489 27.8258 19.912 27.8182C19.859 27.8163 19.8071 27.8026 19.76 27.7782C18.2627 27.0554 16.6221 26.68 14.96 26.68C13.2979 26.68 11.6573 27.0554 10.16 27.7782C10.117 27.8041 10.0677 27.8179 10.0175 27.8182C9.96728 27.8185 9.9179 27.8052 9.87455 27.7798C9.83119 27.7544 9.79546 27.7178 9.77108 27.6738C9.74671 27.6298 9.7346 27.5801 9.73603 27.5298V13.9073C9.7387 13.8164 9.76622 13.728 9.81559 13.6517C9.86496 13.5754 9.93429 13.5141 10.016 13.4746C10.344 13.3143 10.68 13.1701 11.016 13.0419H9.41603C9.18753 13.044 8.96898 13.1358 8.8074 13.2977C8.64582 13.4595 8.55412 13.6784 8.55203 13.9073V27.5298C8.55414 27.7579 8.6461 27.976 8.8079 28.1365C8.96971 28.2971 9.18826 28.3872 9.41603 28.3872H19.048C19.089 28.6101 19.2066 28.8117 19.3806 28.9567C19.5545 29.1018 19.7737 29.1812 20 29.1812C20.2263 29.1812 20.4455 29.1018 20.6194 28.9567C20.7933 28.8117 20.911 28.6101 20.952 28.3872H30.6159C30.8437 28.3872 31.0623 28.2971 31.2241 28.1365C31.3859 27.976 31.4778 27.7579 31.4799 27.5298V13.9073C31.4677 13.6855 31.3716 13.4766 31.2111 13.3233C31.0506 13.1699 30.8377 13.0836 30.6159 13.0819V13.0819Z" fill="white"/>
    <path d="M10.152 14.1718V26.7605C10.1505 26.8207 10.1644 26.8803 10.1924 26.9336C10.2204 26.987 10.2616 27.0322 10.312 27.065C10.3723 27.1089 10.4455 27.1315 10.52 27.1291C10.5677 27.1368 10.6163 27.1368 10.664 27.1291C13.4006 26.029 16.4554 26.029 19.192 27.1291C19.2397 27.1368 19.2883 27.1368 19.336 27.1291C19.4105 27.1315 19.4837 27.1089 19.544 27.065C19.5929 27.0306 19.6329 26.9851 19.6607 26.9321C19.6886 26.8792 19.7034 26.8204 19.704 26.7605V14.1718C19.7052 14.1006 19.6853 14.0306 19.6469 13.9707C19.6084 13.9108 19.5531 13.8637 19.488 13.8352C18.065 13.1723 16.5151 12.8275 14.9458 12.8247C13.3764 12.822 11.8253 13.1613 10.4 13.8192C10.3263 13.8433 10.2623 13.8907 10.2176 13.9542C10.1729 14.0178 10.1499 14.0941 10.152 14.1718V14.1718ZM18.584 16.3273C18.5659 16.3671 18.5401 16.4028 18.5081 16.4324C18.4761 16.4621 18.4385 16.485 18.3976 16.4999C18.3566 16.5149 18.3131 16.5214 18.2695 16.5193C18.226 16.5172 18.1833 16.5064 18.144 16.4876C17.1383 16.0327 16.0475 15.7975 14.944 15.7975C13.8405 15.7975 12.7497 16.0327 11.744 16.4876C11.6995 16.4995 11.6526 16.4995 11.608 16.4876C11.5444 16.4877 11.482 16.4696 11.4282 16.4356C11.3744 16.4015 11.3313 16.3529 11.304 16.2953C11.2855 16.2554 11.2751 16.2122 11.2735 16.1682C11.272 16.1242 11.2792 16.0804 11.2949 16.0393C11.3106 15.9982 11.3343 15.9606 11.3647 15.9289C11.3952 15.8972 11.4316 15.8719 11.472 15.8545C12.5664 15.3519 13.7561 15.0917 14.96 15.0917C16.1639 15.0917 17.3536 15.3519 18.448 15.8545C18.4899 15.8745 18.5271 15.9032 18.5572 15.9386C18.5872 15.9741 18.6094 16.0156 18.6223 16.0603C18.6351 16.1049 18.6384 16.1519 18.6318 16.1979C18.6252 16.2439 18.6089 16.288 18.584 16.3273V16.3273ZM11.44 20.9349C12.5344 20.4323 13.7241 20.1721 14.928 20.1721C16.1319 20.1721 17.3216 20.4323 18.416 20.9349C18.4564 20.9523 18.4928 20.9775 18.5233 21.0093C18.5537 21.041 18.5774 21.0786 18.5931 21.1197C18.6088 21.1608 18.616 21.2046 18.6145 21.2486C18.6129 21.2925 18.6025 21.3358 18.584 21.3756C18.5473 21.4559 18.4806 21.5184 18.3983 21.5499C18.3161 21.5814 18.2247 21.5792 18.144 21.5439C17.1393 21.0855 16.048 20.8483 14.944 20.8483C13.84 20.8483 12.7487 21.0855 11.744 21.5439C11.6991 21.5522 11.653 21.5522 11.608 21.5439C11.5444 21.544 11.482 21.526 11.4282 21.4919C11.3744 21.4579 11.3313 21.4092 11.304 21.3516C11.2715 21.2776 11.2674 21.1941 11.2925 21.1172C11.3176 21.0403 11.3701 20.9754 11.44 20.9349V20.9349ZM11.44 18.4107C12.5344 17.9081 13.7241 17.6479 14.928 17.6479C16.1319 17.6479 17.3216 17.9081 18.416 18.4107C18.4564 18.4281 18.4928 18.4534 18.5233 18.4851C18.5537 18.5169 18.5774 18.5544 18.5931 18.5955C18.6088 18.6366 18.616 18.6804 18.6145 18.7244C18.6129 18.7684 18.6025 18.8116 18.584 18.8515C18.5473 18.9317 18.4806 18.9943 18.3983 19.0258C18.3161 19.0572 18.2247 19.0551 18.144 19.0198C17.1393 18.5614 16.048 18.3242 14.944 18.3242C13.84 18.3242 12.7487 18.5614 11.744 19.0198C11.6991 19.028 11.653 19.028 11.608 19.0198C11.5444 19.0198 11.482 19.0018 11.4282 18.9678C11.3744 18.9337 11.3313 18.885 11.304 18.8274C11.2715 18.7534 11.2674 18.6699 11.2925 18.5931C11.3176 18.5162 11.3701 18.4513 11.44 18.4107ZM11.44 23.4591C12.5305 22.955 13.7164 22.692 14.9174 22.6879C16.1183 22.6837 17.3061 22.9385 18.4 23.435C18.4404 23.4524 18.4768 23.4777 18.5073 23.5094C18.5377 23.5411 18.5614 23.5787 18.5771 23.6198C18.5928 23.6609 18.6 23.7047 18.5985 23.7487C18.5969 23.7927 18.5865 23.8359 18.568 23.8758C18.5313 23.956 18.4646 24.0186 18.3823 24.05C18.3001 24.0815 18.2087 24.0794 18.128 24.044C17.1233 23.5856 16.032 23.3484 14.928 23.3484C13.824 23.3484 12.7327 23.5856 11.728 24.044C11.6831 24.0523 11.637 24.0523 11.592 24.044C11.5284 24.0441 11.466 24.0261 11.4122 23.992C11.3584 23.958 11.3153 23.9093 11.288 23.8517C11.2568 23.7758 11.2551 23.6909 11.2832 23.6138C11.3113 23.5367 11.3673 23.4729 11.44 23.435V23.4591Z" fill="white"/>
    <path d="M20.456 27.065C20.5163 27.1089 20.5895 27.1315 20.664 27.1291C20.7117 27.1368 20.7603 27.1368 20.808 27.1291C23.5445 26.029 26.5994 26.029 29.3359 27.1291C29.3836 27.1368 29.4322 27.1368 29.4799 27.1291C29.5544 27.1315 29.6276 27.1089 29.6879 27.065C29.7368 27.0306 29.7769 26.9851 29.8047 26.9321C29.8325 26.8792 29.8473 26.8203 29.8479 26.7605V14.1717C29.85 14.0941 29.827 14.0178 29.7824 13.9542C29.7377 13.8907 29.6737 13.8433 29.5999 13.8192C28.1715 13.1539 26.6152 12.8093 25.0399 12.8093C23.4647 12.8093 21.9084 13.1539 20.48 13.8192C20.4148 13.8476 20.3595 13.8948 20.3211 13.9547C20.2827 14.0146 20.2628 14.0845 20.264 14.1557V26.7605C20.2657 26.8239 20.2844 26.8856 20.3182 26.9392C20.352 26.9928 20.3996 27.0362 20.456 27.065V27.065ZM28.5599 15.8465C28.64 15.8832 28.7025 15.95 28.7339 16.0325C28.7654 16.1149 28.7632 16.2064 28.7279 16.2872C28.7099 16.327 28.6841 16.3627 28.6521 16.3923C28.6201 16.422 28.5825 16.4449 28.5415 16.4599C28.5005 16.4748 28.457 16.4814 28.4135 16.4793C28.3699 16.4771 28.3273 16.4663 28.2879 16.4475C27.2822 15.9926 26.1914 15.7574 25.0879 15.7574C23.9845 15.7574 22.8937 15.9926 21.888 16.4475C21.8432 16.4578 21.7967 16.4578 21.752 16.4475C21.6883 16.4476 21.6259 16.4295 21.5721 16.3955C21.5183 16.3615 21.4752 16.3128 21.448 16.2552C21.4292 16.2158 21.4184 16.173 21.4163 16.1294C21.4141 16.0858 21.4207 16.0422 21.4356 16.0012C21.4505 15.9602 21.4734 15.9225 21.503 15.8904C21.5326 15.8584 21.5683 15.8325 21.608 15.8145C22.7045 15.3277 23.8925 15.0823 25.0918 15.0947C26.2911 15.1071 27.4737 15.3772 28.5599 15.8866V15.8465ZM21.6 20.9349C22.6957 20.4321 23.8867 20.1718 25.0919 20.1718C26.2972 20.1718 27.4882 20.4321 28.5839 20.9349C28.6298 20.9485 28.6723 20.9718 28.7085 21.0032C28.7447 21.0346 28.7738 21.0734 28.7938 21.117C28.8138 21.1605 28.8243 21.2079 28.8246 21.2558C28.8248 21.3038 28.8149 21.3513 28.7953 21.3951C28.7757 21.4388 28.7471 21.4779 28.7112 21.5097C28.6753 21.5415 28.6331 21.5652 28.5873 21.5793C28.5416 21.5934 28.4933 21.5975 28.4458 21.5914C28.3983 21.5853 28.3527 21.5691 28.3119 21.5439C27.3072 21.0855 26.216 20.8483 25.1119 20.8483C24.0079 20.8483 22.9167 21.0855 21.912 21.5439H21.776C21.7123 21.544 21.6499 21.526 21.5961 21.4919C21.5423 21.4579 21.4992 21.4092 21.472 21.3516C21.4388 21.2785 21.4334 21.1957 21.457 21.1189C21.4806 21.0421 21.5315 20.9767 21.6 20.9349V20.9349ZM21.6 18.4107C22.6957 17.9079 23.8867 17.6476 25.0919 17.6476C26.2972 17.6476 27.4882 17.9079 28.5839 18.4107C28.6298 18.4243 28.6723 18.4476 28.7085 18.479C28.7447 18.5104 28.7738 18.5492 28.7938 18.5928C28.8138 18.6364 28.8243 18.6837 28.8246 18.7317C28.8248 18.7796 28.8149 18.8271 28.7953 18.8709C28.7757 18.9147 28.7471 18.9538 28.7112 18.9856C28.6753 19.0173 28.6331 19.0411 28.5873 19.0552C28.5416 19.0693 28.4933 19.0734 28.4458 19.0673C28.3983 19.0612 28.3527 19.045 28.3119 19.0197C27.3072 18.5613 26.216 18.3241 25.1119 18.3241C24.0079 18.3241 22.9167 18.5613 21.912 19.0197H21.776C21.7123 19.0198 21.6499 19.0018 21.5961 18.9677C21.5423 18.9337 21.4992 18.885 21.472 18.8274C21.4388 18.7543 21.4334 18.6715 21.457 18.5948C21.4806 18.518 21.5315 18.4525 21.6 18.4107V18.4107ZM21.6 23.435C22.6957 22.9322 23.8867 22.6719 25.0919 22.6719C26.2972 22.6719 27.4882 22.9322 28.5839 23.435C28.6532 23.4779 28.7045 23.5445 28.7284 23.6224C28.7524 23.7003 28.7472 23.7843 28.714 23.8587C28.6807 23.9332 28.6217 23.993 28.5477 24.0271C28.4738 24.0611 28.39 24.0672 28.3119 24.044C27.3072 23.5856 26.216 23.3484 25.1119 23.3484C24.0079 23.3484 22.9167 23.5856 21.912 24.044H21.776C21.7123 24.0441 21.6499 24.0261 21.5961 23.992C21.5423 23.958 21.4992 23.9093 21.472 23.8517C21.4388 23.7786 21.4334 23.6958 21.457 23.619C21.4806 23.5423 21.5315 23.4768 21.6 23.435V23.435Z" fill="white"/>
    <path opacity="0.15" d="M39.9999 22.1048L39.9519 22.778C39.5389 27.4988 37.4684 31.9201 34.1084 35.2563C30.7484 38.5925 26.3164 40.6276 21.6 41L8.86404 28.283C9.01307 28.3979 9.19599 28.4599 9.38404 28.4593H19.048C19.089 28.6823 19.2067 28.8838 19.3806 29.0289C19.5545 29.1739 19.7737 29.2534 20 29.2534C20.2263 29.2534 20.4455 29.1739 20.6194 29.0289C20.7933 28.8838 20.911 28.6823 20.952 28.4593H30.616C30.8451 28.4593 31.0649 28.3681 31.2269 28.2058C31.3889 28.0435 31.4799 27.8234 31.4799 27.5939V13.9714C31.4772 13.7699 31.4067 13.5751 31.2799 13.4185L39.9999 22.1048Z" fill="#010101"/>
</svg>