<svg width="29" height="29" viewBox="0 0 29 29" fill="none" xmlns="http://www.w3.org/2000/svg">
    <path d="M26.8333 3.70833H2.16667C1.24167 3.70833 0.625 3.09167 0.625 2.16667C0.625 1.24167 1.24167 0.625 2.16667 0.625H26.8333C27.7583 0.625 28.375 1.24167 28.375 2.16667C28.375 3.09167 27.7583 3.70833 26.8333 3.70833Z" fill="#9E24A0"/>
    <path d="M26.8333 28.375H2.16667C1.24167 28.375 0.625 27.7584 0.625 26.8334C0.625 25.9084 1.24167 25.2917 2.16667 25.2917H26.8333C27.7583 25.2917 28.375 25.9084 28.375 26.8334C28.375 27.7584 27.7583 28.375 26.8333 28.375Z" fill="#9E24A0"/>
    <path d="M26.8333 16.0416H2.16667C1.24167 16.0416 0.625 15.425 0.625 14.5C0.625 13.575 1.24167 12.9583 2.16667 12.9583H26.8333C27.7583 12.9583 28.375 13.575 28.375 14.5C28.375 15.425 27.7583 16.0416 26.8333 16.0416Z" fill="#9E24A0"/>
</svg>